<svg xmlns="http://www.w3.org/2000/svg" viewBox="0 0 800 1000">
  <defs>
    <pattern id="pin4" width="26" height="10" patternUnits="userSpaceOnUse">
      <rect width="1" height="10" fill="#f5f3ef" opacity="0.045"/>
    </pattern>
  </defs>
  <rect width="800" height="1000" fill="#121114"/>
  <rect width="800" height="1000" fill="url(#pin4)"/>
  <rect x="42" y="42" width="716" height="916" fill="none" stroke="#f5f3ef" stroke-opacity="0.12"/>
  <rect x="56" y="56" width="688" height="888" fill="none" stroke="#f5f3ef" stroke-opacity="0.05"/>

  <!-- comb -->
  <g fill="none" stroke-linecap="round">
    <rect x="240" y="420" width="320" height="52" rx="14" stroke="#c9a86a" stroke-width="6"/>
    <g stroke="#c9a86a" stroke-width="4.5">
      <path d="M268 472 v96"/><path d="M296 472 v96"/><path d="M324 472 v96"/>
      <path d="M352 472 v96"/><path d="M380 472 v96"/><path d="M408 472 v96"/>
      <path d="M436 472 v96"/><path d="M464 472 v96"/><path d="M492 472 v96"/>
      <path d="M520 472 v96"/>
    </g>
    <!-- hair strokes -->
    <g stroke="#f5f3ef" stroke-opacity="0.4" stroke-width="3">
      <path d="M250 640 q80 34 150 8"/>
      <path d="M300 680 q90 30 180 -4"/>
      <path d="M380 715 q80 22 150 -14"/>
    </g>
    <g stroke="#f5f3ef" stroke-opacity="0.35" stroke-width="2">
      <path d="M240 320 h320"/>
      <path d="M290 288 h220"/>
    </g>
  </g>

  <text x="400" y="850" text-anchor="middle" fill="#c9a86a" font-family="Georgia, serif" font-size="30" letter-spacing="10">MJ</text>
</svg>
